<svg id="svg" xmlns="http://www.w3.org/2000/svg" xmlns:xlink="http://www.w3.org/1999/xlink" width="512" height="133.87155963302752" viewBox="0, 0, 512,133.87155963302752"><g id="svgg"><path id="path0" d="M74.541 26.020 C 74.062 26.122,73.321 26.430,72.897 26.703 C 71.006 27.919,70.223 28.373,70.015 28.373 C 69.893 28.373,69.521 28.600,69.190 28.877 C 68.858 29.155,68.347 29.454,68.053 29.542 C 67.760 29.630,67.327 29.879,67.090 30.094 C 66.854 30.310,66.309 30.633,65.878 30.813 C 65.448 30.993,65.033 31.242,64.956 31.366 C 64.880 31.490,64.441 31.742,63.982 31.925 C 63.523 32.109,63.147 32.332,63.147 32.421 C 63.147 32.510,62.667 32.783,62.080 33.026 C 61.493 33.270,61.013 33.561,61.013 33.672 C 61.013 33.783,60.624 34.030,60.147 34.220 C 59.671 34.411,59.167 34.668,59.027 34.793 C 58.649 35.129,57.186 35.985,56.184 36.456 C 55.698 36.685,55.231 36.983,55.147 37.120 C 55.062 37.257,54.596 37.555,54.110 37.783 C 53.624 38.011,52.699 38.530,52.053 38.935 C 51.408 39.340,50.545 39.829,50.135 40.020 C 49.725 40.212,49.118 40.598,48.785 40.878 C 48.453 41.158,48.011 41.387,47.803 41.387 C 47.596 41.387,47.260 41.570,47.058 41.794 C 46.855 42.018,46.384 42.321,46.011 42.468 C 45.638 42.615,45.141 42.901,44.907 43.103 C 44.672 43.306,44.275 43.533,44.025 43.609 C 43.774 43.684,43.089 44.255,42.501 44.876 L 41.432 46.007 41.303 48.017 C 41.232 49.122,41.246 57.947,41.334 67.627 L 41.493 85.227 42.626 86.349 C 43.249 86.966,44.065 87.621,44.439 87.803 C 45.924 88.527,47.050 89.190,47.253 89.461 C 47.371 89.618,47.815 89.861,48.241 90.001 C 48.667 90.141,49.181 90.439,49.383 90.663 C 49.585 90.886,50.022 91.129,50.354 91.202 C 50.686 91.274,51.082 91.485,51.236 91.670 C 51.389 91.854,51.923 92.180,52.424 92.395 C 52.924 92.609,53.333 92.880,53.333 92.997 C 53.333 93.114,53.716 93.324,54.184 93.464 C 54.651 93.604,55.182 93.944,55.362 94.220 C 55.551 94.509,55.901 94.720,56.189 94.720 C 56.464 94.720,56.960 94.936,57.290 95.200 C 57.884 95.674,58.925 96.272,60.370 96.969 C 60.779 97.166,61.231 97.496,61.376 97.702 C 61.520 97.908,61.932 98.136,62.292 98.208 C 62.652 98.280,63.170 98.580,63.444 98.876 C 63.718 99.172,64.085 99.413,64.259 99.413 C 64.433 99.413,64.998 99.700,65.515 100.049 C 66.031 100.399,66.562 100.687,66.694 100.689 C 66.826 100.692,67.059 100.843,67.210 101.026 C 67.362 101.208,67.828 101.501,68.247 101.676 C 68.665 101.851,69.201 102.169,69.437 102.384 C 69.673 102.599,70.233 102.892,70.682 103.035 C 71.130 103.179,71.547 103.427,71.608 103.587 C 71.669 103.746,71.927 103.938,72.180 104.013 C 72.433 104.088,73.013 104.402,73.468 104.710 C 74.618 105.488,77.967 105.552,78.761 104.811 C 79.032 104.558,79.541 104.285,79.893 104.203 C 80.245 104.121,80.752 103.827,81.020 103.549 C 81.287 103.272,81.767 102.982,82.086 102.905 C 82.406 102.828,82.811 102.631,82.987 102.467 C 83.483 102.003,85.778 100.693,86.095 100.693 C 86.251 100.693,86.639 100.451,86.959 100.155 C 87.279 99.859,87.788 99.558,88.090 99.487 C 88.393 99.416,88.880 99.142,89.173 98.876 C 89.467 98.611,89.947 98.324,90.240 98.239 C 90.533 98.153,90.930 97.946,91.120 97.779 C 91.483 97.461,92.804 96.710,94.078 96.096 C 94.488 95.899,95.095 95.509,95.428 95.229 C 95.761 94.949,96.206 94.720,96.417 94.720 C 96.628 94.720,96.933 94.560,97.094 94.365 C 97.255 94.170,97.782 93.835,98.265 93.621 C 98.748 93.407,99.264 93.087,99.411 92.909 C 99.558 92.732,99.846 92.587,100.050 92.587 C 100.254 92.587,100.784 92.299,101.227 91.947 C 101.670 91.595,102.196 91.307,102.396 91.307 C 102.597 91.307,102.931 91.118,103.140 90.888 C 103.348 90.657,103.939 90.308,104.453 90.112 C 104.966 89.916,105.387 89.677,105.387 89.581 C 105.387 89.485,105.795 89.204,106.293 88.956 C 108.690 87.766,109.189 87.432,110.107 86.410 C 110.759 85.684,111.139 85.042,111.225 84.522 C 111.436 83.247,111.381 46.802,111.167 46.240 C 110.879 45.483,109.224 43.817,108.373 43.427 C 107.963 43.239,107.099 42.758,106.453 42.357 C 105.808 41.957,104.884 41.442,104.401 41.212 C 103.917 40.983,103.457 40.691,103.379 40.564 C 103.300 40.436,102.832 40.134,102.338 39.891 C 101.844 39.648,100.994 39.189,100.449 38.871 C 99.165 38.123,97.628 37.243,96.439 36.577 C 95.918 36.285,95.342 35.913,95.159 35.751 C 94.976 35.589,94.491 35.298,94.080 35.105 C 93.669 34.912,92.887 34.495,92.341 34.177 C 91.796 33.860,90.932 33.371,90.421 33.091 C 89.911 32.812,89.443 32.506,89.382 32.411 C 89.321 32.317,88.828 32.050,88.286 31.818 C 87.744 31.585,87.234 31.287,87.152 31.155 C 87.070 31.023,86.628 30.765,86.169 30.581 C 85.709 30.397,85.333 30.169,85.333 30.073 C 85.333 29.978,85.013 29.794,84.621 29.665 C 84.230 29.536,83.726 29.263,83.501 29.059 C 83.277 28.855,82.685 28.506,82.187 28.285 C 81.688 28.063,81.280 27.812,81.280 27.727 C 81.280 27.642,80.968 27.446,80.587 27.292 C 80.205 27.138,79.557 26.793,79.146 26.525 C 78.288 25.968,75.978 25.714,74.541 26.020 M464.640 45.451 C 463.995 45.683,462.610 45.971,461.562 46.090 C 460.089 46.257,459.593 46.398,459.372 46.714 C 459.201 46.959,458.707 47.178,458.137 47.264 C 457.472 47.364,457.149 47.527,457.059 47.810 C 456.989 48.032,456.850 48.213,456.750 48.213 C 456.437 48.213,454.941 49.785,454.669 50.400 C 454.526 50.723,454.275 50.987,454.112 50.987 C 453.915 50.987,453.765 51.362,453.667 52.100 C 453.586 52.713,453.334 53.766,453.106 54.440 C 452.580 56.004,452.577 57.704,453.099 58.906 C 453.322 59.420,453.571 60.254,453.653 60.760 C 453.806 61.706,453.985 61.970,455.527 63.517 C 457.035 65.032,457.260 65.216,457.813 65.387 C 458.107 65.478,458.618 65.779,458.950 66.056 C 459.281 66.333,459.778 66.560,460.053 66.560 C 460.329 66.560,460.825 66.788,461.157 67.066 C 461.489 67.345,462.178 67.643,462.689 67.729 C 463.200 67.815,463.796 68.063,464.014 68.281 C 464.237 68.504,464.887 68.740,465.504 68.822 C 466.154 68.908,466.829 69.160,467.166 69.443 C 467.478 69.705,468.130 69.986,468.614 70.067 C 469.147 70.157,469.673 70.421,469.946 70.734 C 470.194 71.020,470.551 71.253,470.740 71.253 C 471.368 71.253,472.332 72.541,472.546 73.665 C 472.900 75.536,472.298 77.867,471.460 77.867 C 471.384 77.867,471.218 78.094,471.091 78.373 C 470.965 78.651,470.603 78.943,470.289 79.022 C 469.975 79.101,469.431 79.377,469.080 79.636 C 468.110 80.353,460.905 80.358,459.693 79.642 C 459.261 79.386,458.445 79.115,457.880 79.040 C 456.569 78.864,455.742 78.548,455.595 78.167 C 455.230 77.216,453.852 78.281,453.643 79.675 C 453.559 80.237,453.301 80.886,453.070 81.116 C 452.582 81.605,452.187 83.831,452.566 83.956 C 452.695 83.998,453.232 84.142,453.760 84.276 C 454.288 84.410,454.880 84.663,455.076 84.837 C 455.307 85.043,456.237 85.225,457.718 85.354 C 459.152 85.478,460.361 85.710,460.963 85.976 C 462.296 86.566,465.570 86.571,467.272 85.985 C 467.935 85.757,469.411 85.466,470.552 85.339 C 472.117 85.165,472.737 85.003,473.082 84.679 C 473.333 84.443,473.885 84.194,474.309 84.125 C 474.791 84.046,475.203 83.810,475.411 83.493 C 475.594 83.215,475.882 82.987,476.053 82.987 C 476.223 82.987,476.677 82.639,477.061 82.214 C 477.446 81.789,477.963 81.237,478.212 80.987 C 478.461 80.738,478.734 80.212,478.820 79.818 C 478.906 79.425,479.183 78.897,479.435 78.645 C 479.872 78.208,479.893 77.995,479.893 74.133 L 479.893 70.080 479.307 69.503 C 478.984 69.186,478.720 68.827,478.720 68.706 C 478.720 68.504,476.940 66.684,475.639 65.555 C 475.340 65.296,474.726 64.984,474.275 64.863 C 473.824 64.741,473.291 64.461,473.091 64.240 C 472.891 64.019,472.346 63.777,471.881 63.703 C 471.415 63.628,470.849 63.382,470.622 63.156 C 470.396 62.929,469.845 62.685,469.399 62.613 C 467.874 62.367,467.638 62.288,467.259 61.893 C 467.051 61.676,466.463 61.445,465.952 61.380 C 465.442 61.315,464.818 61.074,464.566 60.844 C 464.313 60.614,463.751 60.312,463.317 60.173 C 462.882 60.034,462.471 59.745,462.403 59.530 C 462.335 59.315,462.092 59.090,461.862 59.030 C 461.633 58.970,461.343 58.654,461.219 58.327 C 461.095 58.000,460.819 57.610,460.605 57.461 C 459.726 56.845,459.885 54.695,460.882 53.698 C 461.189 53.391,461.440 53.043,461.440 52.925 C 461.440 52.807,461.848 52.590,462.347 52.444 C 462.845 52.297,463.355 52.044,463.479 51.881 C 464.161 50.987,470.843 51.011,471.862 51.910 C 472.055 52.081,472.978 52.321,473.913 52.443 C 475.011 52.587,475.700 52.785,475.859 53.004 C 476.244 53.530,477.440 52.333,477.440 51.420 C 477.440 50.666,477.699 50.088,478.309 49.477 C 479.190 48.597,478.876 47.432,477.711 47.257 C 477.156 47.174,476.422 46.907,476.081 46.664 C 475.602 46.322,474.951 46.182,473.234 46.048 C 472.010 45.952,470.381 45.680,469.615 45.444 C 467.867 44.904,466.153 44.906,464.640 45.451 M80.915 46.444 C 82.855 47.484,84.056 50.835,83.179 52.760 L 82.945 53.274 75.191 53.430 C 66.735 53.600,65.190 53.804,64.823 54.796 C 64.412 55.906,64.188 60.264,64.249 65.954 C 64.330 73.485,64.558 72.960,61.206 72.960 C 59.165 72.960,58.871 72.913,58.612 72.543 C 58.452 72.314,58.062 72.029,57.747 71.909 C 57.431 71.789,57.173 71.548,57.173 71.374 C 57.173 71.200,56.927 70.829,56.627 70.550 L 56.080 70.043 56.096 59.668 C 56.112 49.586,56.180 48.454,56.793 48.071 C 56.949 47.973,57.245 47.629,57.450 47.307 C 57.655 46.984,57.952 46.720,58.109 46.720 C 58.267 46.720,58.625 46.540,58.905 46.319 C 59.730 45.670,59.841 45.665,70.035 45.758 L 79.803 45.848 80.915 46.444 M345.813 45.868 C 345.285 45.967,343.845 46.057,342.613 46.067 C 341.381 46.077,340.157 46.144,339.893 46.214 L 339.413 46.343 339.413 65.727 L 339.413 85.112 339.893 85.231 C 340.157 85.296,341.669 85.322,343.253 85.288 L 346.133 85.227 346.242 77.653 C 346.303 73.488,346.431 69.917,346.528 69.717 C 346.957 68.834,349.244 68.736,350.613 69.542 C 350.965 69.749,351.521 69.982,351.849 70.059 C 352.177 70.136,352.505 70.365,352.578 70.566 C 352.652 70.768,352.984 71.249,353.316 71.634 C 353.648 72.020,353.920 72.520,353.920 72.747 C 353.920 72.973,354.111 73.260,354.344 73.385 C 354.577 73.510,354.825 73.839,354.895 74.116 C 354.964 74.393,355.256 74.824,355.543 75.074 C 355.831 75.323,356.122 75.810,356.191 76.156 C 356.260 76.501,356.545 76.934,356.825 77.117 C 357.105 77.300,357.333 77.622,357.333 77.833 C 357.333 78.044,357.576 78.427,357.873 78.685 C 358.169 78.943,358.469 79.437,358.538 79.782 C 358.607 80.128,358.892 80.560,359.172 80.743 C 359.451 80.927,359.680 81.205,359.680 81.362 C 359.680 81.519,359.968 82.010,360.320 82.453 C 360.672 82.896,360.960 83.376,360.960 83.519 C 360.960 83.663,361.294 84.134,361.702 84.567 L 362.443 85.353 370.456 85.290 C 379.391 85.219,378.738 85.349,378.970 83.601 C 379.053 82.977,379.278 82.405,379.535 82.165 C 379.784 81.934,380.034 81.318,380.132 80.696 C 380.225 80.107,380.510 79.361,380.764 79.037 C 381.018 78.714,381.227 78.277,381.227 78.066 C 381.227 77.042,381.433 77.013,388.837 77.013 L 395.776 77.013 396.468 77.707 C 397.003 78.244,397.193 78.655,397.308 79.530 C 397.394 80.183,397.582 80.708,397.754 80.774 C 398.080 80.899,398.507 81.951,398.507 82.631 C 398.507 82.870,398.686 83.264,398.906 83.506 C 399.126 83.748,399.398 84.235,399.511 84.587 L 399.716 85.227 403.431 85.227 L 407.147 85.227 407.078 84.480 C 407.041 84.069,406.888 83.637,406.740 83.520 C 406.312 83.182,406.039 82.530,405.887 81.482 C 405.808 80.934,405.570 80.359,405.342 80.163 C 405.108 79.963,404.873 79.383,404.785 78.789 C 404.702 78.223,404.421 77.505,404.160 77.193 C 403.890 76.869,403.628 76.180,403.549 75.586 C 403.466 74.958,403.248 74.407,403.001 74.195 C 402.759 73.988,402.530 73.421,402.443 72.815 C 402.362 72.250,402.119 71.592,401.903 71.355 C 401.686 71.117,401.399 70.397,401.265 69.755 C 401.130 69.112,400.843 68.394,400.627 68.158 C 400.411 67.922,400.169 67.298,400.090 66.771 C 400.010 66.244,399.766 65.616,399.548 65.376 C 399.330 65.135,399.053 64.420,398.933 63.787 C 398.813 63.154,398.525 62.433,398.292 62.186 C 398.060 61.938,397.808 61.286,397.733 60.737 C 397.658 60.188,397.369 59.431,397.091 59.055 C 396.793 58.650,396.587 58.073,396.587 57.643 C 396.587 57.182,396.395 56.688,396.066 56.296 C 395.764 55.938,395.483 55.253,395.396 54.666 C 395.312 54.094,395.028 53.391,394.743 53.050 C 394.443 52.690,394.240 52.170,394.240 51.758 C 394.240 51.362,394.018 50.768,393.715 50.358 C 393.427 49.967,393.125 49.205,393.045 48.664 C 392.965 48.119,392.676 47.411,392.397 47.077 C 392.120 46.745,391.893 46.385,391.893 46.277 C 391.893 46.168,390.774 46.080,389.381 46.080 L 386.868 46.080 386.279 46.752 C 385.915 47.167,385.641 47.776,385.563 48.349 C 385.493 48.858,385.209 49.583,384.931 49.959 C 384.654 50.335,384.427 50.867,384.427 51.142 C 384.427 51.796,383.868 53.120,383.592 53.120 C 383.472 53.120,383.310 53.606,383.231 54.200 C 383.153 54.794,382.874 55.595,382.613 55.980 C 382.352 56.364,382.072 57.125,381.990 57.670 C 381.905 58.235,381.680 58.776,381.465 58.930 C 381.246 59.087,380.983 59.730,380.836 60.467 C 380.698 61.164,380.406 61.932,380.187 62.174 C 379.968 62.416,379.724 63.044,379.644 63.571 C 379.564 64.098,379.322 64.722,379.106 64.958 C 378.890 65.194,378.603 65.912,378.469 66.555 C 378.334 67.197,378.047 67.917,377.831 68.155 C 377.614 68.392,377.373 69.036,377.295 69.585 C 377.216 70.134,376.963 70.823,376.732 71.117 C 376.502 71.410,376.230 72.094,376.128 72.638 C 376.027 73.181,375.752 73.836,375.517 74.093 C 375.283 74.350,375.028 75.003,374.950 75.544 C 374.873 76.085,374.573 76.847,374.285 77.238 C 373.982 77.648,373.760 78.242,373.760 78.638 C 373.760 79.048,373.557 79.572,373.259 79.930 C 372.960 80.290,372.701 80.960,372.617 81.590 C 372.528 82.262,372.292 82.845,371.971 83.190 C 371.693 83.489,371.354 83.949,371.219 84.213 C 370.846 84.937,370.211 84.808,369.632 83.890 C 369.353 83.448,368.974 82.962,368.789 82.809 C 368.605 82.656,368.392 82.249,368.317 81.905 C 368.241 81.561,368.099 81.280,368.002 81.280 C 367.791 81.280,366.080 78.819,366.080 78.516 C 366.080 78.402,365.792 78.013,365.440 77.653 C 365.088 77.293,364.800 76.875,364.800 76.723 C 364.800 76.572,364.568 76.230,364.285 75.964 C 364.001 75.697,363.712 75.251,363.642 74.971 C 363.572 74.691,363.315 74.245,363.071 73.978 C 362.447 73.296,361.642 72.105,361.338 71.413 C 361.191 71.078,360.911 70.827,360.686 70.827 C 358.717 70.827,357.907 68.121,359.755 67.718 C 360.125 67.637,360.698 67.344,361.030 67.066 C 361.361 66.788,361.774 66.560,361.946 66.560 C 362.220 66.560,363.943 64.904,365.385 63.255 C 365.648 62.954,365.924 62.303,365.997 61.807 C 366.070 61.312,366.366 60.493,366.655 59.987 C 367.322 58.818,367.342 53.924,366.683 53.195 C 366.486 52.978,366.211 52.344,366.071 51.787 C 365.925 51.206,365.693 50.773,365.529 50.773 C 365.371 50.773,365.131 50.567,364.997 50.315 C 364.693 49.748,363.388 48.427,363.132 48.427 C 363.027 48.427,362.697 48.199,362.396 47.921 C 362.096 47.642,361.482 47.346,361.032 47.263 C 360.582 47.180,359.992 46.906,359.721 46.654 C 358.996 45.979,348.408 45.381,345.813 45.868 M160.783 46.599 C 160.418 46.936,160.176 47.439,160.087 48.039 C 160.012 48.545,159.732 49.296,159.465 49.707 C 159.197 50.117,158.916 50.898,158.840 51.442 C 158.761 52.000,158.524 52.592,158.293 52.800 C 158.063 53.008,157.825 53.600,157.747 54.158 C 157.671 54.702,157.390 55.483,157.123 55.893 C 156.855 56.304,156.581 57.014,156.513 57.471 C 156.446 57.927,156.203 58.503,155.973 58.751 C 155.744 58.998,155.490 59.651,155.409 60.203 C 155.328 60.754,155.032 61.517,154.751 61.897 C 154.470 62.278,154.240 62.797,154.240 63.050 C 154.240 63.741,153.821 64.805,153.501 64.928 C 153.345 64.987,153.150 65.527,153.068 66.127 C 152.975 66.797,152.720 67.452,152.405 67.826 C 152.124 68.161,151.893 68.688,151.893 68.998 C 151.893 69.668,151.353 71.040,151.089 71.040 C 150.986 71.040,150.791 71.638,150.655 72.370 C 150.503 73.188,150.252 73.824,150.004 74.023 C 149.754 74.223,149.549 74.748,149.465 75.401 C 149.387 76.015,149.149 76.649,148.897 76.917 C 148.651 77.178,148.386 77.873,148.283 78.522 C 148.158 79.317,147.964 79.758,147.651 79.966 C 147.343 80.170,147.200 80.489,147.200 80.972 C 147.200 81.862,146.857 82.801,146.409 83.142 C 146.193 83.306,146.057 83.744,146.045 84.315 L 146.027 85.227 149.378 85.227 C 153.181 85.227,153.228 85.206,153.492 83.451 C 153.568 82.944,153.810 82.350,154.029 82.131 C 154.248 81.912,154.529 81.181,154.653 80.507 C 154.778 79.832,155.072 79.076,155.307 78.827 C 155.541 78.577,155.733 78.218,155.733 78.028 C 155.733 77.047,155.987 77.013,163.313 77.013 C 168.579 77.013,170.277 77.077,170.448 77.280 C 170.572 77.427,170.900 77.803,171.176 78.115 C 171.469 78.446,171.743 79.107,171.831 79.696 C 171.920 80.286,172.154 80.849,172.392 81.047 C 172.617 81.234,172.885 81.846,172.988 82.408 C 173.090 82.969,173.324 83.593,173.506 83.795 C 173.688 83.996,173.938 84.427,174.062 84.752 L 174.287 85.343 177.970 85.285 L 181.653 85.227 181.580 84.498 C 181.540 84.098,181.324 83.618,181.100 83.432 C 180.875 83.246,180.611 82.648,180.512 82.105 C 180.412 81.561,180.134 80.839,179.893 80.501 C 179.651 80.162,179.383 79.411,179.296 78.832 C 179.205 78.222,178.972 77.640,178.743 77.449 C 178.519 77.264,178.253 76.613,178.131 75.958 C 178.012 75.319,177.734 74.599,177.513 74.358 C 177.290 74.115,177.045 73.421,176.962 72.800 C 176.880 72.184,176.729 71.680,176.625 71.680 C 176.335 71.680,175.861 70.605,175.707 69.597 C 175.630 69.097,175.380 68.500,175.152 68.272 C 174.911 68.031,174.677 67.406,174.594 66.782 C 174.516 66.190,174.371 65.707,174.271 65.707 C 173.981 65.707,173.508 64.607,173.386 63.650 C 173.324 63.164,173.084 62.577,172.852 62.345 C 172.616 62.109,172.363 61.465,172.277 60.882 C 172.193 60.309,171.941 59.643,171.718 59.402 C 171.494 59.161,171.218 58.469,171.103 57.862 C 170.988 57.256,170.711 56.578,170.489 56.355 C 170.266 56.133,170.015 55.482,169.930 54.908 C 169.846 54.335,169.590 53.665,169.361 53.418 C 169.132 53.171,168.866 52.472,168.770 51.864 C 168.671 51.238,168.403 50.555,168.151 50.287 C 167.882 49.999,167.649 49.370,167.559 48.686 C 167.460 47.940,167.283 47.490,167.036 47.358 C 166.831 47.248,166.602 46.915,166.527 46.619 C 166.321 45.796,161.666 45.780,160.783 46.599 M187.194 46.341 C 187.137 46.491,187.115 55.301,187.145 65.920 L 187.200 85.227 200.320 85.227 L 213.440 85.227 213.440 82.133 L 213.440 79.040 204.231 78.933 C 199.166 78.875,194.942 78.747,194.844 78.649 C 194.747 78.551,194.619 71.207,194.560 62.329 L 194.453 46.187 190.875 46.128 C 188.130 46.083,187.273 46.133,187.194 46.341 M219.859 46.262 C 219.690 46.537,219.658 84.826,219.828 85.100 C 219.983 85.351,243.285 85.451,243.929 85.204 C 244.221 85.092,244.489 79.334,244.213 79.102 C 244.184 79.077,240.347 79.005,235.687 78.942 C 225.312 78.801,226.477 79.424,226.383 73.966 C 226.288 68.405,225.235 69.037,234.809 68.907 L 242.667 68.800 242.667 65.707 L 242.667 62.613 235.093 62.507 C 226.235 62.382,226.660 62.482,226.443 60.461 C 226.178 57.984,226.428 53.374,226.851 52.951 C 227.178 52.624,228.066 52.576,235.581 52.480 L 243.947 52.373 243.947 49.280 L 243.947 46.187 231.960 46.132 C 225.314 46.101,219.923 46.159,219.859 46.262 M251.002 46.271 C 250.633 46.416,250.628 46.446,250.951 46.570 C 251.149 46.646,251.426 46.975,251.567 47.301 C 251.708 47.627,252.043 48.165,252.312 48.496 C 252.580 48.828,252.800 49.267,252.800 49.471 C 252.800 49.676,253.037 50.050,253.328 50.302 C 253.618 50.554,253.918 51.028,253.994 51.354 C 254.071 51.680,254.361 52.167,254.640 52.435 C 254.919 52.704,255.147 53.050,255.147 53.204 C 255.147 53.358,255.391 53.748,255.690 54.070 C 255.988 54.392,256.287 54.931,256.355 55.267 C 256.422 55.602,256.694 56.019,256.959 56.193 C 257.224 56.367,257.507 56.772,257.588 57.093 C 257.668 57.415,257.968 57.956,258.254 58.295 C 258.540 58.635,258.773 59.038,258.773 59.190 C 258.773 59.343,258.933 59.600,259.128 59.761 C 259.323 59.922,259.659 60.451,259.875 60.937 C 260.090 61.423,260.398 61.871,260.559 61.933 C 260.720 61.995,260.918 62.311,261.000 62.635 C 261.081 62.959,261.381 63.502,261.667 63.842 C 262.399 64.711,262.407 66.356,261.682 66.926 C 261.405 67.144,261.106 67.559,261.018 67.848 C 260.930 68.137,260.688 68.565,260.480 68.800 C 260.273 69.035,259.946 69.539,259.753 69.920 C 259.560 70.301,259.317 70.613,259.214 70.613 C 259.110 70.613,258.816 71.045,258.560 71.573 C 258.304 72.101,258.015 72.533,257.918 72.533 C 257.820 72.533,257.629 72.870,257.493 73.282 C 257.357 73.693,257.062 74.129,256.836 74.249 C 256.611 74.370,256.427 74.596,256.427 74.752 C 256.427 74.907,256.139 75.397,255.787 75.840 C 255.435 76.283,255.147 76.769,255.147 76.921 C 255.147 77.072,254.907 77.384,254.613 77.615 C 254.320 77.846,254.080 78.182,254.080 78.361 C 254.080 78.540,253.854 78.959,253.577 79.290 C 253.300 79.622,252.913 80.205,252.718 80.587 C 252.522 80.968,252.277 81.280,252.174 81.280 C 252.070 81.280,251.776 81.712,251.520 82.240 C 251.264 82.768,250.975 83.200,250.878 83.200 C 250.780 83.200,250.590 83.531,250.457 83.936 C 250.318 84.357,250.024 84.733,249.772 84.813 C 248.768 85.132,250.041 85.327,253.147 85.330 C 257.408 85.334,257.641 85.282,257.952 84.243 C 258.088 83.790,258.424 83.272,258.700 83.091 C 258.975 82.911,259.200 82.585,259.200 82.368 C 259.200 82.150,259.360 81.840,259.555 81.679 C 259.750 81.518,260.081 81.003,260.290 80.533 C 260.499 80.064,260.868 79.513,261.109 79.309 C 261.350 79.105,261.547 78.755,261.547 78.531 C 261.547 78.308,261.785 77.899,262.076 77.622 C 262.368 77.346,262.608 76.996,262.610 76.844 C 262.612 76.692,262.844 76.336,263.127 76.054 C 263.409 75.771,263.753 75.199,263.891 74.782 C 264.028 74.365,264.314 73.931,264.525 73.818 C 264.765 73.689,264.964 73.250,265.054 72.649 C 265.137 72.096,265.361 71.572,265.582 71.417 C 265.793 71.268,266.029 70.955,266.106 70.720 C 266.184 70.485,266.439 70.053,266.673 69.760 L 267.098 69.227 267.629 69.825 C 267.921 70.154,268.160 70.573,268.160 70.754 C 268.160 70.936,268.400 71.370,268.693 71.719 C 268.987 72.068,269.227 72.571,269.227 72.838 C 269.227 73.105,269.515 73.625,269.867 73.993 C 270.219 74.361,270.507 74.866,270.507 75.114 C 270.507 75.362,270.747 75.754,271.040 75.985 C 271.333 76.216,271.573 76.528,271.573 76.679 C 271.573 76.831,271.861 77.317,272.213 77.760 C 272.565 78.203,272.853 78.733,272.853 78.938 C 272.853 79.143,273.082 79.460,273.360 79.643 C 273.639 79.826,273.934 80.239,274.014 80.560 C 274.095 80.882,274.395 81.422,274.681 81.762 C 274.966 82.102,275.200 82.513,275.200 82.676 C 275.200 82.838,275.389 83.073,275.619 83.196 C 275.850 83.319,276.150 83.793,276.287 84.249 C 276.601 85.299,276.767 85.334,281.360 85.330 C 284.680 85.327,285.832 85.174,285.249 84.814 C 285.120 84.734,285.013 84.499,285.013 84.293 C 285.013 84.086,284.771 83.706,284.474 83.448 C 284.177 83.190,283.878 82.696,283.809 82.351 C 283.740 82.006,283.455 81.573,283.175 81.390 C 282.895 81.207,282.667 80.904,282.667 80.717 C 282.667 80.529,282.379 80.048,282.027 79.647 C 281.675 79.247,281.387 78.733,281.387 78.507 C 281.387 78.280,281.205 77.998,280.982 77.879 C 280.760 77.760,280.480 77.380,280.359 77.035 C 280.239 76.690,279.938 76.205,279.690 75.957 C 279.443 75.709,279.184 75.225,279.115 74.880 C 279.045 74.532,278.813 74.197,278.593 74.127 C 278.364 74.054,278.088 73.639,277.940 73.148 C 277.800 72.679,277.521 72.207,277.320 72.100 C 277.120 71.992,276.890 71.642,276.809 71.322 C 276.729 71.001,276.481 70.611,276.258 70.455 C 276.035 70.299,275.741 69.799,275.604 69.343 C 275.467 68.885,275.192 68.472,274.988 68.419 C 274.786 68.366,274.558 68.073,274.481 67.769 C 274.405 67.464,274.103 66.976,273.811 66.684 C 272.912 65.784,273.148 62.933,274.122 62.933 C 274.216 62.933,274.349 62.655,274.417 62.315 C 274.485 61.974,274.785 61.432,275.084 61.110 C 275.382 60.788,275.627 60.401,275.627 60.251 C 275.627 60.101,275.851 59.802,276.124 59.586 C 276.398 59.371,276.690 58.924,276.773 58.593 C 276.856 58.261,277.160 57.771,277.449 57.504 C 277.737 57.237,277.973 56.863,277.973 56.674 C 277.973 56.485,278.213 56.173,278.507 55.980 C 278.800 55.788,279.040 55.453,279.040 55.236 C 279.040 55.019,279.315 54.526,279.651 54.141 C 279.987 53.755,280.328 53.229,280.409 52.971 C 280.489 52.713,280.732 52.446,280.949 52.377 C 281.182 52.303,281.396 51.966,281.474 51.549 C 281.546 51.162,281.845 50.638,282.136 50.384 C 282.428 50.130,282.667 49.793,282.667 49.634 C 282.667 49.476,282.869 49.163,283.116 48.940 C 283.363 48.716,283.711 48.171,283.888 47.727 C 284.066 47.284,284.394 46.823,284.618 46.703 C 285.498 46.232,284.658 46.080,281.177 46.080 L 277.579 46.080 276.923 46.736 C 276.562 47.097,276.267 47.526,276.267 47.688 C 276.267 47.850,276.039 48.203,275.760 48.471 C 275.481 48.740,275.191 49.227,275.114 49.553 C 275.038 49.879,274.738 50.352,274.448 50.605 C 274.157 50.857,273.920 51.205,273.920 51.378 C 273.920 51.551,273.680 52.008,273.387 52.392 C 273.093 52.777,272.853 53.198,272.853 53.329 C 272.853 53.459,272.622 53.797,272.340 54.079 C 272.058 54.362,271.714 54.934,271.576 55.351 C 271.438 55.769,271.154 56.202,270.945 56.314 C 270.722 56.433,270.506 56.878,270.426 57.382 C 270.350 57.857,270.118 58.415,269.912 58.621 C 269.705 58.828,269.418 59.391,269.274 59.873 C 268.812 61.415,267.307 61.364,267.307 59.806 C 267.307 59.624,267.067 59.190,266.773 58.841 C 266.440 58.445,266.240 57.943,266.240 57.502 C 266.240 56.988,266.098 56.702,265.717 56.453 C 265.398 56.244,265.138 55.815,265.052 55.356 C 264.974 54.941,264.737 54.509,264.526 54.396 C 264.314 54.283,264.034 53.865,263.902 53.467 C 263.771 53.070,263.481 52.579,263.257 52.377 C 263.034 52.175,262.792 51.741,262.720 51.413 C 262.648 51.086,262.406 50.652,262.183 50.450 C 261.959 50.247,261.662 49.733,261.522 49.308 C 261.382 48.882,261.092 48.409,260.878 48.257 C 260.663 48.105,260.408 47.673,260.310 47.297 C 260.026 46.201,259.538 46.085,255.253 46.098 C 253.141 46.105,251.228 46.182,251.002 46.271 M300.894 46.356 C 300.835 46.509,300.814 47.926,300.847 49.504 L 300.907 52.373 306.846 52.480 C 312.771 52.586,312.786 52.588,313.192 53.090 C 313.585 53.576,313.600 54.159,313.600 69.353 L 313.600 85.112 314.080 85.231 C 314.344 85.296,315.856 85.322,317.440 85.288 L 320.320 85.227 320.427 69.288 C 320.527 54.359,320.557 53.324,320.914 52.968 C 321.255 52.626,321.902 52.576,327.207 52.480 L 333.120 52.373 333.120 49.280 L 333.120 46.187 317.060 46.132 C 303.999 46.088,300.981 46.129,300.894 46.356 M412.639 65.653 L 412.693 85.227 415.360 85.290 C 416.827 85.325,418.344 85.296,418.731 85.225 L 419.435 85.097 419.341 74.495 C 419.289 68.664,419.145 63.125,419.021 62.187 C 418.594 58.944,419.927 56.879,420.726 59.545 C 420.867 60.015,421.140 60.483,421.333 60.587 C 421.527 60.690,421.797 61.149,421.934 61.606 C 422.071 62.063,422.376 62.612,422.611 62.825 C 422.847 63.038,423.040 63.376,423.040 63.575 C 423.040 63.774,423.286 64.216,423.586 64.555 C 424.741 65.862,425.600 67.039,425.600 67.312 C 425.600 67.469,425.787 67.657,426.016 67.730 C 426.244 67.802,426.490 68.048,426.563 68.275 C 426.635 68.502,426.951 68.971,427.267 69.317 C 428.271 70.419,429.013 71.411,429.013 71.651 C 429.013 71.779,429.253 72.041,429.547 72.233 C 429.840 72.425,430.080 72.745,430.080 72.944 C 430.080 73.144,430.368 73.519,430.720 73.780 C 431.072 74.040,431.360 74.336,431.360 74.437 C 431.360 74.539,431.648 74.930,432.000 75.307 C 432.352 75.683,432.640 76.115,432.640 76.265 C 432.640 76.415,432.880 76.695,433.173 76.887 C 433.467 77.079,433.707 77.435,433.707 77.678 C 433.707 77.931,433.878 78.165,434.107 78.225 C 434.328 78.282,434.609 78.552,434.733 78.823 C 434.856 79.094,435.163 79.542,435.414 79.818 C 436.395 80.895,437.333 82.187,437.333 82.459 C 437.333 82.616,437.520 82.804,437.749 82.877 C 437.978 82.949,438.229 83.210,438.307 83.456 C 438.385 83.702,438.774 84.228,439.171 84.625 L 439.893 85.347 442.400 85.287 L 444.907 85.227 444.923 65.755 L 444.940 46.283 444.497 46.173 C 444.253 46.113,442.805 46.091,441.280 46.125 L 438.507 46.187 438.507 57.941 C 438.507 67.652,438.558 69.757,438.803 70.051 C 439.563 70.967,439.402 72.960,438.568 72.960 C 438.068 72.960,436.707 71.563,436.385 70.721 C 436.191 70.213,435.907 69.749,435.753 69.690 C 435.600 69.632,435.417 69.297,435.347 68.946 C 435.277 68.596,434.975 68.046,434.676 67.724 C 434.378 67.401,434.133 67.022,434.133 66.880 C 434.133 66.739,433.869 66.332,433.547 65.975 C 432.120 64.399,430.507 62.277,430.507 61.978 C 430.507 61.826,430.267 61.545,429.973 61.353 C 429.680 61.161,429.440 60.873,429.440 60.713 C 429.440 60.553,429.200 60.265,428.907 60.073 C 428.613 59.881,428.373 59.587,428.373 59.421 C 428.373 59.254,428.197 58.992,427.981 58.839 C 427.765 58.685,427.346 58.175,427.050 57.704 C 426.754 57.232,426.354 56.717,426.162 56.557 C 425.970 56.398,425.813 56.147,425.813 55.998 C 425.813 55.850,425.573 55.572,425.280 55.380 C 424.987 55.187,424.747 54.894,424.747 54.727 C 424.747 54.561,424.570 54.299,424.354 54.145 C 424.138 53.992,423.836 53.627,423.683 53.333 C 423.529 53.040,423.130 52.464,422.795 52.053 C 422.460 51.643,421.970 51.042,421.706 50.717 C 421.443 50.393,420.963 49.838,420.640 49.483 C 420.317 49.129,420.053 48.763,420.053 48.671 C 420.053 48.579,419.765 48.181,419.413 47.787 C 419.061 47.392,418.773 46.907,418.773 46.708 C 418.773 46.217,417.954 46.080,415.012 46.080 L 412.584 46.080 412.639 65.653 M353.398 51.925 C 353.633 52.090,354.375 52.293,355.047 52.377 C 356.614 52.573,358.287 53.827,358.617 55.055 C 358.734 55.489,358.973 55.963,359.148 56.108 C 359.635 56.512,359.581 58.888,359.071 59.545 C 358.853 59.824,358.607 60.424,358.523 60.877 C 358.289 62.150,356.318 63.787,355.020 63.787 C 354.796 63.787,354.493 63.931,354.347 64.107 C 354.133 64.365,353.473 64.427,350.949 64.427 L 347.817 64.427 347.028 63.705 L 346.240 62.982 346.247 58.105 C 346.254 52.813,346.232 52.915,347.520 52.104 C 348.445 51.522,352.640 51.394,353.398 51.925 M164.346 55.947 C 164.513 56.211,164.717 57.188,164.800 58.118 C 164.900 59.244,165.084 59.993,165.350 60.358 C 165.578 60.670,165.808 61.458,165.883 62.187 C 165.963 62.960,166.192 63.716,166.460 64.097 C 166.704 64.444,166.976 65.183,167.064 65.739 C 167.152 66.296,167.439 67.041,167.701 67.396 C 168.345 68.267,168.513 70.180,168.013 70.943 L 167.654 71.492 163.529 71.426 C 158.632 71.348,157.498 70.828,158.751 69.236 C 158.980 68.945,159.256 68.161,159.364 67.493 C 159.473 66.826,159.746 66.079,159.972 65.833 C 160.203 65.582,160.447 64.899,160.531 64.271 C 160.612 63.657,160.878 62.902,161.121 62.593 C 161.455 62.168,161.602 61.562,161.722 60.107 C 161.841 58.667,161.993 58.032,162.327 57.580 C 162.573 57.249,162.773 56.890,162.773 56.784 C 162.773 55.896,163.927 55.282,164.346 55.947 M390.050 56.266 C 390.108 56.472,390.221 57.336,390.300 58.187 C 390.379 59.037,390.518 59.733,390.609 59.733 C 390.877 59.733,391.214 60.799,391.444 62.369 C 391.581 63.304,391.789 63.926,392.020 64.095 C 392.244 64.259,392.447 64.835,392.551 65.604 C 392.653 66.354,392.849 66.920,393.045 67.030 C 393.768 67.434,394.067 70.156,393.481 70.993 C 393.089 71.552,386.096 71.732,384.954 71.212 C 384.053 70.801,383.676 69.871,384.198 69.349 C 384.428 69.119,384.675 68.565,384.747 68.119 C 384.988 66.625,385.053 66.428,385.460 65.958 C 385.683 65.701,385.928 65.022,386.004 64.449 C 386.080 63.876,386.339 63.155,386.581 62.848 C 386.908 62.433,387.067 61.789,387.204 60.335 C 387.338 58.904,387.505 58.221,387.827 57.786 C 388.069 57.458,388.267 57.056,388.267 56.891 C 388.267 55.761,389.759 55.239,390.050 56.266 M83.139 58.941 C 83.765 59.567,83.713 69.246,83.079 70.115 C 82.836 70.448,82.577 70.882,82.504 71.081 C 82.430 71.279,82.100 71.614,81.771 71.825 C 81.442 72.035,81.061 72.353,80.924 72.530 C 80.522 73.051,69.742 73.132,69.314 72.617 C 68.727 71.909,68.887 61.291,69.493 60.800 C 69.757 60.587,69.973 60.313,69.973 60.193 C 69.973 60.073,70.477 59.631,71.093 59.212 L 72.213 58.449 77.486 58.505 C 82.218 58.554,82.798 58.599,83.139 58.941 M94.216 59.455 C 96.201 61.117,96.147 60.791,96.284 71.936 L 96.404 81.686 95.864 82.709 C 95.137 84.085,94.692 84.530,93.375 85.196 L 92.261 85.760 82.210 85.760 C 73.370 85.760,72.126 85.720,71.883 85.428 C 71.731 85.245,71.288 84.962,70.897 84.799 C 70.506 84.635,70.187 84.405,70.187 84.286 C 70.187 84.167,69.987 83.884,69.742 83.656 C 68.882 82.855,68.611 79.838,69.280 78.516 L 69.653 77.779 77.283 77.841 C 84.487 77.899,84.963 77.879,85.816 77.483 C 86.313 77.253,86.889 77.008,87.097 76.938 C 87.903 76.666,87.985 75.882,88.101 67.313 L 88.213 58.999 88.747 58.716 C 89.995 58.056,93.034 58.466,94.216 59.455 " stroke="none" fill="#1e3a8a" fill-rule="evenodd"></path></g></svg>