<?xml version="1.0" standalone="no"?>
<!DOCTYPE svg PUBLIC "-//W3C//DTD SVG 20010904//EN"
 "http://www.w3.org/TR/2001/REC-SVG-20010904/DTD/svg10.dtd">
<svg version="1.0" xmlns="http://www.w3.org/2000/svg"
 width="256.000000pt" height="234.000000pt" viewBox="0 0 2566.000000 2343.000000"
 preserveAspectRatio="xMidYMid meet">

<g transform="translate(0.000000,2343.000000) scale(0.100000,-0.100000)"
fill="#0B4F8C" stroke="none">
<path d="M15020 22512 c-25 -8 -662 -273 -1585 -660 -236 -99 -554 -232 -705
-295 -342 -143 -645 -270 -927 -388 -120 -50 -342 -143 -493 -206 -151 -63
-342 -143 -425 -178 -82 -35 -330 -138 -550 -230 -220 -92 -539 -226 -710
-297 -170 -72 -431 -181 -580 -243 -148 -62 -369 -154 -490 -205 -212 -89
-486 -203 -1350 -565 -220 -92 -591 -247 -825 -345 -475 -199 -1001 -419
-1685 -705 -424 -177 -1170 -489 -1530 -640 -82 -35 -301 -126 -485 -203 -184
-77 -434 -181 -555 -232 -353 -148 -500 -209 -855 -358 -184 -77 -425 -178
-535 -224 l-200 -83 0 -4850 0 -4849 120 -51 c122 -52 219 -94 950 -410 610
-263 922 -398 1525 -658 546 -235 984 -424 1805 -779 242 -105 469 -203 505
-218 36 -15 265 -114 510 -220 245 -106 672 -290 950 -410 278 -120 658 -284
845 -365 187 -81 417 -180 510 -220 94 -40 323 -139 510 -220 187 -81 385
-166 440 -190 55 -23 285 -122 510 -220 226 -98 442 -191 480 -207 113 -49
3032 -1308 3575 -1543 118 -51 447 -193 730 -316 403 -174 524 -222 555 -221
31 0 193 75 730 338 380 185 776 378 880 429 355 173 1398 682 1875 915 261
128 538 263 615 300 77 37 262 127 410 200 149 73 443 217 655 320 212 103
585 286 830 405 245 120 625 305 845 412 566 276 594 290 2315 1131 118 57
297 144 398 193 l182 88 0 6343 0 6343 -878 415 c-482 228 -940 444 -1017 481
-77 37 -732 347 -1455 689 -723 342 -1821 862 -2440 1155 -1405 665 -2587
1224 -2705 1280 -49 23 -169 80 -265 125 -96 45 -215 102 -265 125 -690 326
-702 331 -745 317z m1175 -2187 c215 -87 437 -177 495 -201 l105 -42 3 -8339
2 -8339 -507 -202 c-280 -111 -511 -202 -515 -202 -5 0 -8 3936 -8 8746 0
8325 1 8746 18 8742 9 -3 193 -76 407 -163z m-1995 -8581 c0 -6985 -3 -8735
-12 -8731 -7 2 -273 96 -590 208 l-578 203 0 8317 0 8318 53 19 c28 11 142 52
252 91 110 39 349 125 530 190 182 66 333 120 338 120 4 1 7 -3930 7 -8735z
m4260 7664 c206 -83 380 -155 385 -159 7 -5 9 -2519 7 -7517 l-2 -7510 -390
-156 c-215 -86 -395 -156 -400 -156 -6 0 -10 2879 -10 7831 0 7454 1 7831 18
7825 9 -4 186 -75 392 -158z m-6830 -7668 c0 -4301 -4 -7820 -8 -7820 -5 0
-87 28 -183 61 -96 34 -298 105 -449 159 l-275 97 -3 7497 -2 7496 27 11 c16
6 179 65 363 131 184 65 376 134 425 153 50 19 93 34 98 35 4 0 7 -3519 7
-7820z m8608 6949 l302 -123 0 -6835 0 -6836 -308 -123 c-169 -67 -310 -122
-315 -122 -4 0 -7 3189 -7 7086 0 5665 3 7085 13 7081 6 -3 148 -61 315 -128z
m-10698 -6958 l0 -7080 -137 49 c-76 26 -239 84 -363 128 l-225 80 0 6823 0
6824 350 126 c193 70 356 127 363 128 9 1 12 -1421 12 -7078z m12168 6362
l242 -97 -2 -6270 -3 -6270 -245 -98 c-135 -54 -246 -98 -247 -98 -2 0 -3
2909 -3 6465 0 3556 3 6465 8 6465 4 0 116 -43 250 -97z m-13958 -6363 c0
-4556 -3 -6440 -11 -6440 -10 0 -89 27 -389 134 l-125 44 -3 6253 c-1 3439 1
6256 6 6261 7 7 499 186 515 188 4 0 7 -2898 7 -6440z m-1400 -11 c0 -3266 -2
-5939 -4 -5939 -7 0 -408 141 -444 155 l-32 14 2 5777 3 5776 230 83 c127 45
233 81 238 78 4 -2 7 -2677 7 -5944z m16541 5896 c73 -30 162 -67 197 -81 l62
-26 -2 -5787 -3 -5786 -190 -77 c-104 -42 -196 -77 -202 -77 -10 -1 -13 1194
-13 5944 0 3270 4 5945 8 5945 4 0 69 -25 143 -55z m-17791 -5896 c0 -4397 -3
-5500 -12 -5497 -7 2 -95 33 -195 68 l-183 65 0 5365 0 5366 183 66 c100 36
188 66 195 67 9 1 12 -1105 12 -5500z m18917 5440 l153 -62 0 -5376 0 -5377
-142 -57 c-79 -31 -151 -59 -160 -63 -17 -6 -18 260 -18 5495 0 3026 3 5501 7
5501 4 0 76 -28 160 -61z m-20000 -10556 c-2 -2 -71 21 -153 50 l-149 52 -3
5011 -2 5012 152 54 153 55 3 -5115 c1 -2813 0 -5117 -1 -5119z m-937 5112 c0
-2632 -1 -4785 -2 -4785 -2 0 -57 20 -123 43 l-120 43 0 4698 0 4698 115 44
c63 23 118 43 123 43 4 1 7 -2152 7 -4784z m-830 -5 l0 -4490 -96 35 c-53 19
-98 35 -100 35 -2 0 -4 1990 -4 4423 l0 4422 88 31 c48 17 93 32 100 33 9 1
12 -903 12 -4489z m-730 1 l0 -4229 -80 26 -80 26 0 4177 0 4177 73 25 c39 14
75 26 80 26 4 1 7 -1902 7 -4228z"/>
</g>
</svg>
