<?xml version="1.0" encoding="UTF-8" standalone="no"?>
<svg
   id="svg"
   width="70.100479"
   height="79.443016"
   viewBox="0 0 70.100479 79.443009"
   version="1.1"
   sodipodi:docname="logo_alex_trans_min1.svg"
   inkscape:version="1.3.2 (091e20e, 2023-11-25, custom)"
   xmlns:inkscape="http://www.inkscape.org/namespaces/inkscape"
   xmlns:sodipodi="http://sodipodi.sourceforge.net/DTD/sodipodi-0.dtd"
   xmlns="http://www.w3.org/2000/svg"
   xmlns:svg="http://www.w3.org/2000/svg">
  <defs
     id="defs1" />
  <sodipodi:namedview
     id="namedview1"
     pagecolor="#ffffff"
     bordercolor="#000000"
     borderopacity="0.25"
     inkscape:showpageshadow="2"
     inkscape:pageopacity="0.0"
     inkscape:pagecheckerboard="0"
     inkscape:deskcolor="#d1d1d1"
     inkscape:zoom="7.9804688"
     inkscape:cx="4.3857073"
     inkscape:cy="38.155653"
     inkscape:window-width="2560"
     inkscape:window-height="1017"
     inkscape:window-x="-8"
     inkscape:window-y="-8"
     inkscape:window-maximized="1"
     inkscape:current-layer="svg" />
  <path
     id="path0"
     d="m 33.283315,0.13121221 c -0.479,0.102 -1.22,0.41 -1.644,0.683 -1.891,1.21599999 -2.674,1.66999999 -2.882,1.66999999 -0.122,0 -0.494,0.227 -0.825,0.504 -0.332,0.278 -0.843,0.577 -1.137,0.665 -0.293,0.088 -0.726,0.337 -0.963,0.552 -0.236,0.216 -0.781,0.539 -1.212,0.719 -0.43,0.18 -0.845,0.429 -0.922,0.553 -0.076,0.124 -0.515,0.376 -0.974,0.559 -0.459,0.184 -0.835,0.407 -0.835,0.496 0,0.089 -0.48,0.362 -1.067,0.605 -0.587,0.244 -1.067,0.535 -1.067,0.646 0,0.111 -0.389,0.358 -0.866,0.548 -0.476,0.191 -0.98,0.448 -1.12,0.573 -0.378,0.336 -1.841,1.1919998 -2.843,1.6629998 -0.486,0.229 -0.953,0.527 -1.037,0.664 -0.085,0.137 -0.551,0.435 -1.037,0.663 -0.486,0.228 -1.411,0.747 -2.057,1.152 -0.645,0.405 -1.5079999,0.894 -1.9179999,1.085 -0.41,0.192 -1.017,0.578 -1.35,0.858 -0.332,0.28 -0.774,0.509 -0.982,0.509 -0.207,0 -0.543,0.183 -0.745,0.407 -0.203,0.224 -0.674,0.527 -1.047,0.674 -0.373,0.147 -0.87,0.433 -1.104,0.635 -0.235,0.203 -0.632,0.43 -0.882,0.506 -0.251,0.075 -0.936,0.646 -1.524,1.267 l -1.06899998,1.131 -0.129,2.01 c -0.071,1.105 -0.057,9.93 0.031,19.61 l 0.159,17.6 1.13299998,1.122 c 0.623,0.617 1.439,1.272 1.813,1.454 1.485,0.724 2.611,1.387 2.814,1.658 0.118,0.157 0.562,0.4 0.988,0.54 0.426,0.14 0.94,0.438 1.142,0.662 0.202,0.223 0.639,0.466 0.971,0.539 0.332,0.072 0.728,0.283 0.882,0.468 0.1529999,0.184 0.6869999,0.51 1.1879999,0.725 0.5,0.214 0.909,0.485 0.909,0.602 0,0.117 0.383,0.327 0.851,0.467 0.467,0.14 0.998,0.48 1.178,0.756 0.189,0.289 0.539,0.5 0.827,0.5 0.275,0 0.771,0.216 1.101,0.48 0.594,0.474 1.635,1.072 3.08,1.769 0.409,0.197 0.861,0.527 1.006,0.733 0.144,0.206 0.556,0.434 0.916,0.506 0.36,0.072 0.878,0.372 1.152,0.668 0.274,0.296 0.641,0.537 0.815,0.537 0.174,0 0.739,0.287 1.256,0.636 0.516,0.35 1.047,0.638 1.179,0.64 0.132,0.003 0.365,0.154 0.516,0.337 0.152,0.182 0.618,0.475 1.037,0.65 0.418,0.175 0.954,0.493 1.19,0.708 0.236,0.215 0.796,0.508 1.245,0.651 0.448,0.144 0.865,0.392 0.926,0.552 0.061,0.159 0.319,0.351 0.572,0.426 0.253,0.075 0.833,0.389 1.288,0.697 1.15,0.778 4.499,0.842 5.293,0.101 0.271,-0.253 0.78,-0.526 1.132,-0.608 0.352,-0.082 0.859,-0.376 1.127,-0.654 0.267,-0.277 0.747,-0.567 1.066,-0.644 0.32,-0.077 0.725,-0.274 0.901,-0.438 0.496,-0.464 2.791,-1.774 3.108,-1.774 0.156,0 0.544,-0.242 0.864,-0.538 0.32,-0.296 0.829,-0.597 1.131,-0.668 0.303,-0.071 0.79,-0.345 1.083,-0.611 0.294,-0.265 0.774,-0.552 1.067,-0.637 0.293,-0.086 0.69,-0.293 0.88,-0.46 0.363,-0.318 1.684,-1.069 2.958,-1.683 0.41,-0.197 1.017,-0.587 1.35,-0.867 0.333,-0.28 0.778,-0.509 0.989,-0.509 0.211,0 0.516,-0.16 0.677,-0.355 0.161,-0.195 0.688,-0.53 1.171,-0.744 0.483,-0.214 0.999,-0.534 1.146,-0.712 0.147,-0.177 0.435,-0.322 0.639,-0.322 0.204,0 0.734,-0.288 1.177,-0.64 0.443,-0.352 0.969,-0.64 1.169,-0.64 0.201,0 0.535,-0.189 0.744,-0.419 0.208,-0.231 0.799,-0.58 1.313,-0.776 0.513,-0.196 0.934,-0.435 0.934,-0.531 0,-0.096 0.408,-0.377 0.906,-0.625 2.397,-1.19 2.896,-1.524 3.814,-2.546 0.652,-0.726 1.032,-1.368 1.118,-1.888 0.211,-1.275 0.156,-37.72 -0.058,-38.282 -0.288,-0.757 -1.943,-2.423 -2.794,-2.813 -0.41,-0.188 -1.274,-0.669 -1.92,-1.07 -0.645,-0.4 -1.569,-0.915 -2.052,-1.145 -0.484,-0.229 -0.944,-0.521 -1.022,-0.648 -0.079,-0.128 -0.547,-0.43 -1.041,-0.673 -0.494,-0.243 -1.344,-0.702 -1.889,-1.02 -1.284,-0.748 -2.821,-1.628 -4.01,-2.294 -0.521,-0.292 -1.097,-0.664 -1.28,-0.8259998 -0.183,-0.162 -0.668,-0.453 -1.079,-0.646 -0.411,-0.193 -1.193,-0.61 -1.739,-0.928 -0.545,-0.317 -1.409,-0.806 -1.92,-1.086 -0.51,-0.279 -0.978,-0.585 -1.039,-0.68 -0.061,-0.094 -0.554,-0.361 -1.096,-0.593 -0.542,-0.233 -1.052,-0.531 -1.134,-0.663 -0.082,-0.132 -0.524,-0.39 -0.983,-0.574 -0.46,-0.184 -0.836,-0.412 -0.836,-0.508 0,-0.095 -0.32,-0.279 -0.712,-0.408 -0.391,-0.129 -0.895,-0.402 -1.12,-0.606 -0.224,-0.204 -0.816,-0.553 -1.314,-0.774 -0.499,-0.222 -0.907,-0.473 -0.907,-0.558 0,-0.085 -0.312,-0.281 -0.693,-0.435 -0.382,-0.154 -1.03,-0.49899999 -1.441,-0.76699999 -0.858,-0.557 -3.168,-0.811 -4.605,-0.505 m 6.374,20.42399979 c 1.94,1.04 3.141,4.391 2.264,6.316 l -0.234,0.514 -7.754,0.156 c -8.456,0.17 -10.001,0.374 -10.368,1.366 -0.411,1.11 -0.635,5.468 -0.574,11.158 0.081,7.531 0.309,7.006 -3.043,7.006 -2.041,0 -2.335,-0.047 -2.594,-0.417 -0.16,-0.229 -0.55,-0.514 -0.865,-0.634 -0.316,-0.12 -0.574,-0.361 -0.574,-0.535 0,-0.174 -0.246,-0.545 -0.546,-0.824 l -0.547,-0.507 0.016,-10.375 c 0.016,-10.082 0.084,-11.214 0.697,-11.597 0.156,-0.098 0.452,-0.442 0.657,-0.764 0.205,-0.323 0.502,-0.587 0.659,-0.587 0.158,0 0.516,-0.18 0.796,-0.401 0.825,-0.649 0.936,-0.654 11.13,-0.561 l 9.768,0.09 1.112,0.596 m 2.224,12.497 c 0.626,0.626 0.574,10.305 -0.06,11.174 -0.243,0.333 -0.502,0.767 -0.575,0.966 -0.074,0.198 -0.404,0.533 -0.733,0.744 -0.329,0.21 -0.71,0.528 -0.847,0.705 -0.402,0.521 -11.182,0.602 -11.61,0.087 -0.587,-0.708 -0.427,-11.326 0.179,-11.817 0.264,-0.213 0.48,-0.487 0.48,-0.607 0,-0.12 0.504,-0.562 1.12,-0.981 l 1.12,-0.763 5.273,0.056 c 4.732,0.049 5.312,0.094 5.653,0.436 m 11.077,0.514 c 1.985,1.662 1.931,1.336 2.068,12.481 l 0.12,9.75 -0.54,1.023 c -0.727,1.376 -1.172,1.821 -2.489,2.487 l -1.114,0.564 h -10.051 c -8.84,0 -10.084,-0.04 -10.327,-0.332 -0.152,-0.183 -0.595,-0.466 -0.986,-0.629 -0.391,-0.164 -0.71,-0.394 -0.71,-0.513 0,-0.119 -0.2,-0.402 -0.445,-0.63 -0.86,-0.801 -1.131,-3.818 -0.462,-5.14 l 0.373,-0.737 7.63,0.062 c 7.204,0.058 7.68,0.038 8.533,-0.358 0.497,-0.23 1.073,-0.475 1.281,-0.545 0.806,-0.272 0.888,-1.056 1.004,-9.625 l 0.112,-8.314 0.534,-0.283 c 1.248,-0.66 4.287,-0.25 5.469,0.739"
     stroke="none"
     fill="#2e2e2e"
     fill-rule="evenodd"
     sodipodi:nodetypes="ccsccccccscsccccscccscsccccccccccsccccsccscccsssccccsccsccssccsscccccsssscsssccsccccccccsccssccccscscccscccccccccsccscccccscccccccccccsccccccccccsccscccccccccc" />
</svg>
